<svg width="0" height="0" class="hidden">

  <symbol version="1.1" xml:space="preserve" xmlns="http://www.w3.org/2000/svg" xmlns:xlink="http://www.w3.org/1999/xlink" width="70%" height="70%" viewBox="0 0 100 100" id="discord_icon">
    <g id="Layer_1"></g>
    <g id="Layer_2">
      <path d="M85.778,24.561c-11.641-8.71-22.793-8.466-22.793-8.466s-1.14,1.302-1.14,1.302c13.839,4.152,20.27,10.257,20.27,10.257   c-19.799-10.901-45.019-10.823-65.613,0c0,0,6.675-6.431,21.328-10.583c0,0-0.814-0.977-0.814-0.977s-11.071-0.244-22.793,8.466   c0,0-11.722,21.084-11.722,47.052c0,0,6.838,11.722,24.829,12.292c0,0,3.012-3.582,5.454-6.675   c-10.339-3.093-14.246-9.524-14.246-9.524c6.495,4.064,13.063,6.608,21.247,8.222c13.316,2.741,29.879-0.077,42.249-8.222   c0,0-4.07,6.594-14.734,9.606c2.442,3.012,5.373,6.512,5.373,6.512C90.662,83.254,97.5,71.532,97.5,71.613   C97.5,45.645,85.778,24.561,85.778,24.561z M34.818,64.043c-4.559,0-8.303-3.989-8.303-8.955c0.333-11.892,16.357-11.855,16.607,0   C43.121,60.054,39.458,64.043,34.818,64.043z M64.531,64.043c-4.559,0-8.303-3.989-8.303-8.955c0.366-11.869,16.19-11.874,16.607,0   C72.834,60.054,69.171,64.043,64.531,64.043z"></path>
    </g>
  </symbol>

  <symbol enable-background="new 0 0 64 64" version="1.1" xml:space="preserve" xmlns="http://www.w3.org/2000/svg" xmlns:xlink="http://www.w3.org/1999/xlink" viewBox="0 0 100 100" id="email_icon">
    <g id="Glyph_copy_2">
      <path d="M63.125,9.977c-0.902-1.321-2.419-2.194-4.131-2.194H5.006c-1.676,0-3.158,0.842-4.067,2.117l31.16,25.982L63.125,9.977z"></path>
      <path d="M0.006,14.328v36.889c0,2.75,2.25,5,5,5h53.988c2.75,0,5-2.25,5-5V14.461L32.099,41.09L0.006,14.328z"></path>
    </g>
  </symbol>

  <symbol xmlns="http://www.w3.org/2000/svg" xmlns:xlink="http://www.w3.org/1999/xlink" version="1.1" id="linkedin_icon" width="80%" height="80%" viewBox="0 0 24 24">
    <path d="M19 3A2 2 0 0 1 21 5V19A2 2 0 0 1 19 21H5A2 2 0 0 1 3 19V5A2 2 0 0 1 5 3H19M18.5 18.5V13.2A3.26 3.26 0 0 0 15.24 9.94C14.39 9.94 13.4 10.46 12.92 11.24V10.13H10.13V18.5H12.92V13.57C12.92 12.8 13.54 12.17 14.31 12.17A1.4 1.4 0 0 1 15.71 13.57V18.5H18.5M6.88 8.56A1.68 1.68 0 0 0 8.56 6.88C8.56 5.95 7.81 5.19 6.88 5.19A1.69 1.69 0 0 0 5.19 6.88C5.19 7.81 5.95 8.56 6.88 8.56M8.27 18.5V10.13H5.5V18.5H8.27Z"></path>
  </symbol>

  <symbol id="location_icon" version="1.1" xml:space="preserve" xmlns="http://www.w3.org/2000/svg" xmlns:xlink="http://www.w3.org/1999/xlink" width="120%" height="120%" viewBox="0 0 91 91">
    <g>
      <path d="M45.5,20.5L18.3,38.1l1.8,2.8l5-3.3v26h-3.7V67h50.7v-3.4h-4.4v-26l5,3.3l1.8-2.8L47.4,20.5C46.8,20.1,46.1,20.1,45.5,20.5   z M57.2,42.9c0,5.9-10.7,17-10.7,17s-10.7-11.1-10.7-17c0-5.9,4.8-10.7,10.7-10.7C52.4,32.2,57.2,37,57.2,42.9z"></path>
      <circle cx="46.5" cy="42.7" r="4.4"></circle>
    </g>
  </symbol>

  <symbol enable-background="new 0 0 512 512" id="phone_icon" version="1.1" xml:space="preserve" xmlns="http://www.w3.org/2000/svg" xmlns:xlink="http://www.w3.org/1999/xlink" width="160%" height="160%" viewBox="150 150 512 512">
    <path d="M322.2,154.8H189.7c-19.3,0-35,15.7-35,35v132.5c0,19.3,15.7,35,35,35h132.5c19.3,0,35-15.7,35-35V189.8  C357.2,170.5,341.5,154.8,322.2,154.8z M240,186.5l0.1,0.2l-0.5,0L240,186.5z M320.8,292.2l-1.5,2.8c-5.8,11.1-18.5,16.8-30.6,13.6  c-18.8-5.1-37.2-15.5-51.4-30c-14.5-14.3-24.9-32.6-30-51.4c-3.3-12.1,2.5-24.8,13.6-30.6c1.2-0.6,2.3-1.2,3.4-1.8  c3.4-1.8,7.5-0.7,9.6,2.5c3.7,5.6,8.9,13.7,15.2,23.3c1.9,2.9,1.5,6.8-1,9.3l-5.6,5.6c-2.8,2.8-3.6,7.1-1.9,10.8  c5.9,12.9,16.2,23.2,29.1,29.1c3.6,1.7,7.9,0.9,10.8-1.9l5.1-5.1c2.5-2.5,6.3-2.9,9.3-1l23.5,15.3  C321.5,284.7,322.6,288.8,320.8,292.2z"></path>
  </symbol>

  <symbol xmlns="http://www.w3.org/2000/svg" width="70%" height="70%" viewBox="0 0 32 32" id="telegram_icon">
    <path d="M29.919 6.163l-4.225 19.925c-0.319 1.406-1.15 1.756-2.331 1.094l-6.438-4.744-3.106 2.988c-0.344 0.344-0.631 0.631-1.294 0.631l0.463-6.556 11.931-10.781c0.519-0.462-0.113-0.719-0.806-0.256l-14.75 9.288-6.35-1.988c-1.381-0.431-1.406-1.381 0.288-2.044l24.837-9.569c1.15-0.431 2.156 0.256 1.781 2.013z"></path>
  </symbol>

</svg>